<?xml version="1.0" encoding="UTF-8"?>
<svg version="1.1" xmlns="http://www.w3.org/2000/svg" width="171" height="175">
<path d="M0 0 C56.43 0 112.86 0 171 0 C171 57.75 171 115.5 171 175 C114.57 175 58.14 175 0 175 C0 117.25 0 59.5 0 0 Z " fill="#78A7FE" transform="translate(0,0)"/>
<path d="M0 0 C1.02609375 -0.02578125 2.0521875 -0.0515625 3.109375 -0.078125 C9.21053619 0.55930975 13.47199522 3.99156382 18.1875 7.6875 C18.74469727 8.12215576 19.30189453 8.55681152 19.87597656 9.00463867 C24.74033835 12.81208768 29.55746647 16.68041224 34.35864258 20.56713867 C37.78715426 23.33013388 41.25593811 26.01383402 44.8046875 28.62109375 C45.56620117 29.18530029 46.32771484 29.74950684 47.11230469 30.33081055 C48.57574475 31.41038971 50.04730961 32.47907777 51.52832031 33.53442383 C52.53910645 34.28308716 52.53910645 34.28308716 53.5703125 35.046875 C54.16086426 35.47323242 54.75141602 35.89958984 55.35986328 36.33886719 C61.72123428 42.77090183 62.83310088 48.14524002 62.91908264 57.16638184 C62.90681282 58.57968141 62.89339257 59.9929714 62.87890625 61.40625 C62.87973643 62.8778094 62.88220144 64.34936869 62.88621521 65.82092285 C62.88906234 68.89408525 62.87448019 71.96651446 62.84692383 75.03955078 C62.8128417 78.96021635 62.81886895 82.8795723 62.8375864 86.8003006 C62.84820253 89.83574153 62.83917714 92.87088266 62.82420158 95.90629578 C62.81905301 97.35103971 62.81946079 98.79581538 62.82574654 100.24055481 C62.84759449 108.27784969 62.75171483 114.43995571 58.25 121.25 C56.1796875 123.08984375 56.1796875 123.08984375 54.125 124.1875 C53.44179687 124.56777344 52.75859375 124.94804687 52.0546875 125.33984375 C48.60245237 127.08090605 46.54224214 127.35804933 42.625 127.3125 C41.12066406 127.29896484 41.12066406 127.29896484 39.5859375 127.28515625 C38.81507812 127.27355469 38.04421875 127.26195312 37.25 127.25 C37.24453156 126.31824951 37.24453156 126.31824951 37.23895264 125.36767578 C37.19700658 118.87804307 37.1275762 112.38910963 37.04248047 105.89990234 C37.01432769 103.48102832 36.99308498 101.06206327 36.97900391 98.64306641 C36.95749633 95.15740551 36.91080307 91.67283248 36.859375 88.1875 C36.85814636 87.11322754 36.85691772 86.03895508 36.85565186 84.93212891 C36.71139185 77.46656315 35.51325229 72.12178419 30.57421875 66.26171875 C30.03410156 65.82472656 29.49398437 65.38773437 28.9375 64.9375 C28.40511719 64.48761719 27.87273437 64.03773437 27.32421875 63.57421875 C21.70572783 59.98727257 16.85267752 58.78866619 10.2265625 58.81640625 C9.10814468 58.80854347 9.10814468 58.80854347 7.96713257 58.80052185 C6.3989994 58.79413583 4.83081811 58.79539405 3.26269531 58.80395508 C0.88778639 58.81245424 -1.48470359 58.78367771 -3.859375 58.75195312 C-13.26628317 58.70651749 -20.82043126 59.17840201 -28.30859375 65.36328125 C-28.92863281 66.08902344 -29.54867187 66.81476563 -30.1875 67.5625 C-30.82558594 68.28050781 -31.46367188 68.99851562 -32.12109375 69.73828125 C-36.2655934 76.12896057 -36.08002576 83.05795968 -36.1640625 90.43359375 C-36.18342865 91.48909927 -36.2027948 92.5446048 -36.2227478 93.63209534 C-36.28224553 96.9838162 -36.32880965 100.33557197 -36.375 103.6875 C-36.4132072 105.96811345 -36.45226051 108.24871289 -36.4921875 110.52929688 C-36.58792242 116.1027397 -36.67305617 121.67626777 -36.75 127.25 C-38.16263683 127.27896843 -39.57544952 127.29942201 -40.98828125 127.31640625 C-42.16837769 127.33489624 -42.16837769 127.33489624 -43.37231445 127.35375977 C-48.08272735 127.14820216 -51.95356843 125.82735455 -55.51171875 122.703125 C-60.38261071 117.37226987 -61.98958821 112.14050377 -62.04052734 104.91259766 C-62.05328705 103.677565 -62.06604675 102.44253235 -62.07919312 101.17007446 C-62.08225109 99.83473875 -62.08447868 98.49940092 -62.0859375 97.1640625 C-62.09237343 95.77932602 -62.09910238 94.39459088 -62.10610962 93.00985718 C-62.1180523 90.11331024 -62.12179353 87.2168823 -62.12060547 84.3203125 C-62.12040237 80.62613021 -62.14770697 76.93271803 -62.18214989 73.23871803 C-62.20449116 70.38006145 -62.20844083 67.52158816 -62.20738602 64.66285324 C-62.21086361 62.6444503 -62.23247829 60.62610456 -62.25448608 58.6078186 C-62.21210517 50.0580409 -61.41716638 44.38884901 -55.59375 37.81640625 C-54.8203125 37.15511719 -54.046875 36.49382813 -53.25 35.8125 C-52.36957031 35.0596875 -51.48914062 34.306875 -50.58203125 33.53125 C-46.74852985 30.44329853 -42.83937248 27.47625054 -38.875 24.55859375 C-35.6937036 22.20841103 -32.5619662 19.79963154 -29.4375 17.375 C-24.5275035 13.57947808 -19.56328262 9.86254962 -14.5625 6.1875 C-13.59026489 5.47134521 -13.59026489 5.47134521 -12.59838867 4.74072266 C-7.98372951 1.36366198 -5.70653262 0.08517213 0 0 Z " fill="#FDFEFE" transform="translate(83.75,25.75)"/>
<path d="M0 0 C56.43 0 112.86 0 171 0 C171 57.75 171 115.5 171 175 C114.57 175 58.14 175 0 175 C0 117.25 0 59.5 0 0 Z M51.06591797 22.35888672 C48.15480361 24.67140276 45.20337093 26.92941412 42.25 29.1875 C41.21617188 29.98414062 40.18234375 30.78078125 39.1171875 31.6015625 C36.97955481 33.24630745 34.83950584 34.88731109 32.6953125 36.5234375 C30.50470605 38.19554581 28.32143415 39.87649882 26.14453125 41.56640625 C24.09285623 43.15422431 22.02818943 44.72543606 19.94921875 46.27734375 C11.83202549 52.52725304 6.84179727 59.09468954 4 69 C3.81208923 71.43845476 3.72410581 73.88565823 3.70947266 76.33129883 C3.70275543 77.03948257 3.69603821 77.74766632 3.68911743 78.47731018 C3.67021749 80.8039565 3.66621723 83.13031308 3.6640625 85.45703125 C3.65762862 87.08599462 3.65089982 88.71495685 3.64389038 90.34391785 C3.63193735 93.75412676 3.62820748 97.16423452 3.62939453 100.57446289 C3.62959752 104.92540673 3.60230781 109.27569594 3.56785011 113.62648487 C3.5455149 116.99044217 3.54155902 120.35424362 3.54261398 123.71826744 C3.54026751 125.32130881 3.53149815 126.9243551 3.51594925 128.52732277 C3.44124331 137.02482687 3.39544347 144.52568457 8 152 C8.8971875 153.546875 8.8971875 153.546875 9.8125 155.125 C15.87845314 163.09739555 22.44223934 167.81407978 32 171 C33.39200205 171.09823961 34.78813846 171.14339109 36.18356323 171.15390015 C37.03555801 171.16250061 37.8875528 171.17110107 38.7653656 171.17996216 C39.69728226 171.18422211 40.62919891 171.18848206 41.58935547 171.19287109 C43.06561653 171.20513733 43.06561653 171.20513733 44.57170105 171.21765137 C47.83685705 171.24250921 51.10196934 171.25902832 54.3671875 171.2734375 C56.04325262 171.28142302 56.04325262 171.28142302 57.75317764 171.28956985 C63.67496301 171.31631147 69.59672729 171.33567749 75.51855469 171.35009766 C80.40513982 171.36340177 85.29130391 171.39118826 90.17773438 171.43212891 C96.088105 171.4816462 101.99809553 171.50624316 107.9086647 171.51332474 C110.15316031 171.52000845 112.39764841 171.53515463 114.64202499 171.55921555 C129.10688713 171.7053564 141.25301458 171.72907147 153 162.1875 C163.1854738 152.16991863 165.30639 140.70965078 165.44248962 126.7073822 C165.44043796 125.32445106 165.43744976 123.94152104 165.43359375 122.55859375 C165.43816988 121.09993755 165.44347963 119.64128349 165.44947815 118.18263245 C165.45834447 115.1461605 165.4560595 112.10995249 165.44604492 109.07348633 C165.43453908 105.21159521 165.45482372 101.35061637 165.48396206 97.48884487 C165.50243474 94.48336657 165.50201021 91.47810277 165.49632454 88.47258186 C165.4961728 87.04983296 165.50209284 85.62706811 165.51461601 84.20437431 C165.60910912 71.7188002 163.6392036 61.38194056 155 52 C147.79306416 44.69865015 139.25267258 38.75062422 131.08642578 32.58105469 C128.6414805 30.72832059 126.21049695 28.85818858 123.78320312 26.98242188 C122.21125317 25.76834547 120.63495327 24.559908 119.05859375 23.3515625 C116.9788724 21.75259411 114.90966118 20.14472316 112.84765625 18.5234375 C90.02535591 0.85270306 72.19850704 5.51434371 51.06591797 22.35888672 Z " fill="#FDFDFE" transform="translate(0,0)"/>
<path d="M0 0 C0.67671753 -0.00287018 1.35343506 -0.00574036 2.05065918 -0.00869751 C3.47958209 -0.01073647 4.90853302 -0.00521819 6.33740234 0.00732422 C8.52374725 0.02338239 10.70824379 0.00747216 12.89453125 -0.01171875 C14.28385824 -0.00973629 15.67318409 -0.00589254 17.0625 0 C18.32642578 0.00338379 19.59035156 0.00676758 20.89257812 0.01025391 C24.03125 0.3984375 24.03125 0.3984375 25.70613098 1.63175964 C27.4186268 3.91489678 27.39464431 5.21641198 27.37182617 8.0534668 C27.37148628 9.46458992 27.37148628 9.46458992 27.37113953 10.90422058 C27.35565567 11.91680435 27.34017181 12.92938812 27.32421875 13.97265625 C27.31997391 15.01162552 27.31572906 16.05059479 27.31135559 17.12104797 C27.29454849 20.44294026 27.25689196 23.76422825 27.21875 27.0859375 C27.20370582 29.33657979 27.19001695 31.58723157 27.17773438 33.83789062 C27.1471888 39.35849363 27.08846978 44.87778832 27.03125 50.3984375 C14.82125 50.3984375 2.61125 50.3984375 -9.96875 50.3984375 C-10.0375609 43.75945994 -10.09731348 37.12171586 -10.13354492 30.48266602 C-10.14864602 28.22350882 -10.16912842 25.96438101 -10.19506836 23.70532227 C-10.23139308 20.46102657 -10.24846308 17.21711794 -10.26171875 13.97265625 C-10.27720261 12.96007248 -10.29268646 11.94748871 -10.30863953 10.90422058 C-10.30897942 9.49309746 -10.30897942 9.49309746 -10.30932617 8.0534668 C-10.31598801 7.22517868 -10.32264984 6.39689056 -10.32951355 5.54350281 C-9.356192 -0.24377337 -5.02561288 0.0134546 0 0 Z " fill="#FDFEFE" transform="translate(75.96875,102.6015625)"/>
</svg>
