<?xml version="1.0" encoding="UTF-8"?>
<svg version="1.1" xmlns="http://www.w3.org/2000/svg" width="258" height="206">
<path d="M0 0 C17.777443 13.26326225 30.52033819 31.65877524 35.70947266 53.27539062 C35.93248047 54.10296875 36.15548828 54.93054688 36.38525391 55.78320312 C41.41987663 77.63415072 37.09447684 102.75943618 25.53173828 121.86865234 C21.24322166 128.60221394 16.26129509 134.54781217 10.70947266 140.27539062 C9.90316406 141.19191406 9.90316406 141.19191406 9.08056641 142.12695312 C-5.42210797 158.04718214 -29.33153166 166.27734321 -50.29052734 167.27539062 C-75.08305233 167.76302261 -98.93673103 159.65651353 -117.09130859 142.40820312 C-118.17992187 141.35246094 -118.17992187 141.35246094 -119.29052734 140.27539062 C-119.90283203 139.7365625 -120.51513672 139.19773438 -121.14599609 138.64257812 C-136.07726108 125.04385166 -145.22390736 102.07055149 -146.41479492 82.20214844 C-147.38842331 54.98878295 -139.55963862 31.01379767 -120.91162109 10.68164062 C-89.22184189 -22.24795779 -37.06864623 -26.3074494 0 0 Z M-97.29052734 37.27539062 C-99.60613411 40.74880078 -99.55209365 42.12646278 -99.58105469 46.22802734 C-99.59381439 47.45294891 -99.6065741 48.67787048 -99.61972046 49.93991089 C-99.62277813 51.27829836 -99.62500588 52.61668795 -99.62646484 53.95507812 C-99.63289282 55.32886901 -99.63962118 56.70265852 -99.64663696 58.07644653 C-99.65861158 60.95643283 -99.66231766 63.83629916 -99.66113281 66.71630859 C-99.66092971 70.40078462 -99.68822059 74.08448852 -99.72267723 77.76878166 C-99.74495312 80.60673532 -99.74897015 83.44450343 -99.74791336 86.28253555 C-99.75026873 87.64048038 -99.75908883 88.99843038 -99.77457809 90.35628891 C-99.79424601 92.25874599 -99.78587543 94.16142987 -99.77636719 96.06396484 C-99.77921722 97.14523651 -99.78206726 98.22650818 -99.78500366 99.34054565 C-99.16135317 103.04207276 -97.99587896 104.70065745 -95.29052734 107.27539062 C-93.09446268 107.98772215 -93.09446268 107.98772215 -90.70556641 107.84301758 C-89.80493469 107.84263992 -88.90430298 107.84226227 -87.97637939 107.84187317 C-87.01270447 107.81606674 -86.04902954 107.79026031 -85.05615234 107.76367188 C-84.06299011 107.75659714 -83.06982788 107.7495224 -82.04656982 107.74223328 C-78.87712002 107.71426351 -75.70944237 107.65151864 -72.54052734 107.58789062 C-70.39081329 107.56281117 -68.24107152 107.53999739 -66.09130859 107.51953125 C-60.82377774 107.46442884 -55.55727914 107.38077728 -50.29052734 107.27539062 C-50.17588135 106.40003662 -50.06123535 105.52468262 -49.94311523 104.62280273 C-49.78061279 103.46530518 -49.61811035 102.30780762 -49.45068359 101.11523438 C-49.2947876 99.97175537 -49.1388916 98.82827637 -48.97827148 97.65014648 C-47.50401817 90.41599542 -43.89049011 85.05796324 -37.91552734 80.77539062 C-28.39823263 75.1760489 -19.83465122 76.12822759 -9.29052734 78.27539062 C-9.1416592 74.23724667 -9.03307646 70.20017458 -8.9609375 66.15991211 C-8.93085404 64.78723313 -8.88997401 63.41474499 -8.83789062 62.04272461 C-8.76472661 60.06514441 -8.7341965 58.08613354 -8.70458984 56.10742188 C-8.6574585 54.32428589 -8.6574585 54.32428589 -8.609375 52.50512695 C-9.35994795 48.94622748 -10.45720447 47.31881914 -13.41616821 45.17720032 C-16.96528789 43.46961372 -20.4815376 43.7126442 -24.34521484 43.84960938 C-26.11213873 43.85752023 -27.87906622 43.86465767 -29.64599609 43.87109375 C-32.4068065 43.91058997 -35.16651402 43.96291514 -37.92675781 44.03149414 C-53.7716161 44.36955173 -53.7716161 44.36955173 -57.79443359 41.47167969 C-58.9763525 40.02761065 -60.13333324 38.56269116 -61.26171875 37.07641602 C-65.80414473 33.04398804 -72.80416005 34.40294485 -78.54052734 34.65039062 C-79.9154733 34.67341448 -81.29048186 34.69297268 -82.66552734 34.70898438 C-90.34210782 34.56029913 -90.34210782 34.56029913 -97.29052734 37.27539062 Z M-26.29052734 85.27539062 C-26.29052734 89.89539063 -26.29052734 94.51539062 -26.29052734 99.27539062 C-30.91052734 99.27539062 -35.53052734 99.27539062 -40.29052734 99.27539062 C-40.29052734 101.91539062 -40.29052734 104.55539063 -40.29052734 107.27539062 C-35.67052734 107.27539062 -31.05052734 107.27539062 -26.29052734 107.27539062 C-26.29052734 111.89539063 -26.29052734 116.51539063 -26.29052734 121.27539062 C-23.65052734 121.27539062 -21.01052734 121.27539062 -18.29052734 121.27539062 C-18.29052734 116.65539062 -18.29052734 112.03539062 -18.29052734 107.27539062 C-13.67052734 107.27539062 -9.05052734 107.27539062 -4.29052734 107.27539062 C-4.29052734 104.63539063 -4.29052734 101.99539062 -4.29052734 99.27539062 C-8.91052734 99.27539062 -13.53052734 99.27539062 -18.29052734 99.27539062 C-18.29052734 94.65539062 -18.29052734 90.03539063 -18.29052734 85.27539062 C-20.93052734 85.27539062 -23.57052734 85.27539062 -26.29052734 85.27539062 Z " fill="#0B327A" transform="translate(177.29052734375,30.724609375)"/>
<path d="M0 0 C19.60543485 1.33673419 37.31276745 16.99468255 49.6875 31.125 C57.97489826 41.67259779 63.87386779 53.97732772 67 67 C67.22300781 67.82757813 67.44601563 68.65515625 67.67578125 69.5078125 C72.00276536 88.28751223 69.4209148 110.69604703 61 128 C60.01 128.33 59.02 128.66 58 129 C57.67 128.34 57.34 127.68 57 127 C56.34 127 55.68 127 55 127 C54.67 126.01 54.34 125.02 54 124 C56.64738916 122.5393715 57.89448334 122 61 122 C61.99 118.04 62.98 114.08 64 110 C63.34 110 62.68 110 62 110 C62 107.03 62 104.06 62 101 C62.66 101 63.32 101 64 101 C63.67 99.02 63.34 97.04 63 95 C64.98 95.495 64.98 95.495 67 96 C66.505 87.09 66.505 87.09 66 78 C65.34 77.67 64.68 77.34 64 77 C64.20625 76.360625 64.4125 75.72125 64.625 75.0625 C65.45842547 68.25619203 62.79943709 60.19608743 60 54 C58.48869067 52.27363749 58.48869067 52.27363749 57 51 C57 51.66 57 52.32 57 53 C56.01 53.33 55.02 53.66 54 54 C54.01160156 53.26394531 54.02320313 52.52789062 54.03515625 51.76953125 C54.04417969 50.79371094 54.05320313 49.81789062 54.0625 48.8125 C54.07410156 47.84957031 54.08570313 46.88664062 54.09765625 45.89453125 C54.00486622 43.14423487 53.62111685 40.67520409 53 38 C52.38125 38.185625 51.7625 38.37125 51.125 38.5625 C49 39 49 39 47 38 C47.33 37.01 47.66 36.02 48 35 C47.61067144 32.85744207 47.61067144 32.85744207 47 31 C43.94736336 30.01879536 42.05263664 30.01879536 39 31 C38.06576355 27.98968256 37.95550089 27.13349732 39 24 C36.35261084 22.5393715 35.10551666 22 32 22 C32.33 21.34 32.66 20.68 33 20 C32.01 19.67 31.02 19.34 30 19 C30 18.01 30 17.02 30 16 C28.68 15.67 27.36 15.34 26 15 C26 14.34 26 13.68 26 13 C25.34 13 24.68 13 24 13 C24 12.34 24 11.68 24 11 C23.01 11.66 22.02 12.32 21 13 C18.48291084 13.78659036 16.67336842 14 14 14 C13.375 12.1875 13.375 12.1875 13 10 C13.66 9.01 14.32 8.02 15 7 C13.88625 6.855625 12.7725 6.71125 11.625 6.5625 C8 6 8 6 6 5 C6 5.66 6 6.32 6 7 C5.01 7 4.02 7 3 7 C0 2.77777778 0 2.77777778 0 0 Z " fill="#164298" transform="translate(146,17)"/>
<path d="M0 0 C0.66 0.33 1.32 0.66 2 1 C1.14277344 1.71285156 0.28554687 2.42570312 -0.59765625 3.16015625 C-11.51691823 11.13767514 -11.51691823 11.13767514 -18.9375 21.75 C-18.98609581 23.49944919 -19 25.249876 -19 27 C-20.65 27.33 -22.3 27.66 -24 28 C-24 29.65 -24 31.3 -24 33 C-24.66 33 -25.32 33 -26 33 C-25.67 34.65 -25.34 36.3 -25 38 C-25.66 38 -26.32 38 -27 38 C-27 38.66 -27 39.32 -27 40 C-26.34 40 -25.68 40 -25 40 C-24.67 41.32 -24.34 42.64 -24 44 C-26.31 43.67 -28.62 43.34 -31 43 C-32.33067486 46.99202457 -33 50.78989794 -33 55 C-33.31669821 57.33564933 -33.64820803 59.6693782 -34 62 C-33.34 62 -32.68 62 -32 62 C-32.495 64.475 -32.495 64.475 -33 67 C-35.475 67.495 -35.475 67.495 -38 68 C-39.00005304 71.00015912 -39.11575585 72.97423756 -39.09765625 76.10546875 C-39.09443359 77.08837891 -39.09121094 78.07128906 -39.08789062 79.08398438 C-39.07951172 80.10814453 -39.07113281 81.13230469 -39.0625 82.1875 C-39.05798828 83.22326172 -39.05347656 84.25902344 -39.04882812 85.32617188 C-39.0370401 87.88417266 -39.02058515 90.44205733 -39 93 C-38.34 93.33 -37.68 93.66 -37 94 C-37.99 94 -38.98 94 -40 94 C-44.10698419 69.06000731 -38.64654595 44.12671586 -24.125 23.3125 C-17.22483603 14.40906262 -9.29596063 6.38772714 0 0 Z " fill="#0C214C" transform="translate(72,28)"/>
<path d="M0 0 C0.99 0.33 1.98 0.66 3 1 C2.34 1 1.68 1 1 1 C-0.07416386 4.22249158 -0.13975777 6.57912674 -0.16113281 9.96850586 C-0.17554413 11.81072975 -0.17554413 11.81072975 -0.19024658 13.69017029 C-0.19509401 15.03172622 -0.19937297 16.37328431 -0.203125 17.71484375 C-0.20887857 19.09102887 -0.21463628 20.46721397 -0.22039795 21.84339905 C-0.23089691 24.72755303 -0.23674709 27.61167921 -0.24023438 30.49584961 C-0.24572307 34.18923501 -0.26976327 37.88225249 -0.29820633 41.57552242 C-0.31683884 44.41769991 -0.32203857 47.25978877 -0.32357025 50.10202217 C-0.32659492 51.46357807 -0.33461727 52.82513247 -0.34775543 54.18662834 C-0.36482996 56.09171112 -0.36108882 57.99694598 -0.35644531 59.90209961 C-0.36009094 60.98559189 -0.36373657 62.06908417 -0.36749268 63.18540955 C0.05199556 66.39822889 0.65786989 67.77494456 3 70 C4.97910513 70.6107509 4.97910513 70.6107509 7.19604492 70.54589844 C8.03668991 70.56561707 8.8773349 70.58533569 9.74345398 70.60565186 C11.09827629 70.60749481 11.09827629 70.60749481 12.48046875 70.609375 C13.40845779 70.62591125 14.33644684 70.64244751 15.29255676 70.65948486 C18.25760435 70.70808427 21.22213866 70.72936222 24.1875 70.75 C26.19729162 70.7781497 28.2070592 70.80807571 30.21679688 70.83984375 C35.14448901 70.91384645 40.0718942 70.96334806 45 71 C45 71.33 45 71.66 45 72 C40.87512849 72.16994868 36.75008624 72.33535254 32.625 72.5 C30.89056641 72.57154297 30.89056641 72.57154297 29.12109375 72.64453125 C23.88252925 72.85170612 18.6797062 73.01475621 13.4375 72.90625 C9.93031266 72.88623752 7.45833271 73.17283987 4.375 75 C2.704375 75.99 2.704375 75.99 1 77 C1.18046875 76.38511719 1.3609375 75.77023438 1.546875 75.13671875 C2.19802243 72.96732964 2.19802243 72.96732964 1.25 70.8125 C0.04890402 68.68217062 0.04890402 68.68217062 -3 68 C-3 67.34 -3 66.68 -3 66 C-4.485 66.495 -4.485 66.495 -6 67 C-5.625 64.0625 -5.625 64.0625 -5 61 C-4.01 60.505 -4.01 60.505 -3 60 C-2.67 40.86 -2.34 21.72 -2 2 C-1.34 2 -0.68 2 0 2 C0 1.34 0 0.68 0 0 Z " fill="#0A214E" transform="translate(79,67)"/>
<path d="M0 0 C0.66 0.33 1.32 0.66 2 1 C1.14277344 1.71285156 0.28554687 2.42570312 -0.59765625 3.16015625 C-11.51691823 11.13767514 -11.51691823 11.13767514 -18.9375 21.75 C-18.98609581 23.49944919 -19 25.249876 -19 27 C-20.65 27.33 -22.3 27.66 -24 28 C-24 29.65 -24 31.3 -24 33 C-24.66 33 -25.32 33 -26 33 C-25.67 34.65 -25.34 36.3 -25 38 C-25.66 38 -26.32 38 -27 38 C-27 38.66 -27 39.32 -27 40 C-26.34 40 -25.68 40 -25 40 C-24.67 41.32 -24.34 42.64 -24 44 C-28.75 43.125 -28.75 43.125 -31 42 C-32.20737706 34.41077278 -28.25987064 29.03174058 -24 23 C-17.07805257 14.32687728 -8.93023646 6.57281386 0 0 Z M-33 42 C-32.01 42.495 -32.01 42.495 -31 43 C-31.99 43.495 -31.99 43.495 -33 44 C-33 43.34 -33 42.68 -33 42 Z " fill="#0B275F" transform="translate(72,28)"/>
<path d="M0 0 C1.32 0 2.64 0 4 0 C4.33 0.99 4.66 1.98 5 3 C6.58409994 2.88512252 8.16728963 2.75765492 9.75 2.625 C11.07257813 2.52058594 11.07257813 2.52058594 12.421875 2.4140625 C15.00919794 2.1355049 15.00919794 2.1355049 17.140625 0.8984375 C19 0 19 0 22 1 C23.33841672 0.68770276 24.67139075 0.35169068 26 0 C27.66623639 -0.03786901 29.33397597 -0.04627845 31 0 C17.8478978 8.76806813 -4.15184246 6.79321776 -19 4 C-21.35525211 3.38959096 -23.67132833 2.70846622 -26 2 C-26 1.67 -26 1.34 -26 1 C-23.72923158 0.97300275 -21.45837179 0.95360547 -19.1875 0.9375 C-17.92292969 0.92589844 -16.65835938 0.91429687 -15.35546875 0.90234375 C-12 1 -12 1 -9 2 C-5.65903756 2.83524061 -4.3408808 3.11362693 -1 2 C-0.67 1.34 -0.34 0.68 0 0 Z " fill="#0E2555" transform="translate(122,192)"/>
<path d="M0 0 C0.66 0 1.32 0 2 0 C2 0.99 2 1.98 2 3 C2.639375 3.28875 3.27875 3.5775 3.9375 3.875 C6 5 6 5 7 7 C6.95875 8.258125 6.9175 9.51625 6.875 10.8125 C6.8044539 14.69959022 7.73343228 16.78902907 10 20 C10 20.66 10 21.32 10 22 C10.66 22 11.32 22 12 22 C12.33 20.68 12.66 19.36 13 18 C13.66 18 14.32 18 15 18 C14.773125 18.804375 14.54625 19.60875 14.3125 20.4375 C13.89836577 25.15863018 15.28885735 28.64963732 17 33 C18.65 33.33 20.3 33.66 22 34 C22.66 36.31 23.32 38.62 24 41 C21 41 21 41 19.2734375 39.41015625 C9.78962832 27.68223584 3.32869215 14.68814508 0 0 Z " fill="#0B1B3B" transform="translate(33,126)"/>
<path d="M0 0 C0.66 0.33 1.32 0.66 2 1 C2 1.99 2 2.98 2 4 C2.99 4.33 3.98 4.66 5 5 C5.99 6.485 5.99 6.485 7 8 C7.680625 7.79375 8.36125 7.5875 9.0625 7.375 C12.78833331 6.89936171 15.46992554 7.82330851 19 9 C19 8.34 19 7.68 19 7 C19.66 7 20.32 7 21 7 C21.66 9.97 22.32 12.94 23 16 C16.6855314 15.11375879 11.69553435 13.0409785 6.125 10.0625 C5.47072021 9.71445313 4.81644043 9.36640625 4.14233398 9.0078125 C1.04984414 7.30912654 -1.70379355 5.71292539 -4 3 C-2.68 2.01 -1.36 1.02 0 0 Z " fill="#0A1D42" transform="translate(73,177)"/>
<path d="M0 0 C5.62335936 -0.04946121 11.2465919 -0.08574868 16.87011719 -0.10986328 C18.78290004 -0.1199169 20.69566755 -0.13356173 22.60839844 -0.15087891 C25.35876252 -0.17515522 28.10892328 -0.1864895 30.859375 -0.1953125 C31.71368103 -0.20563507 32.56798706 -0.21595764 33.44818115 -0.22659302 C34.24870911 -0.22674408 35.04923706 -0.22689514 35.87402344 -0.22705078 C36.92659332 -0.23371262 36.92659332 -0.23371262 38.00042725 -0.24050903 C40.38328752 0.0461019 41.97000447 0.73069008 44 2 C44.75 4.125 44.75 4.125 45 6 C44.19353027 5.67854004 43.38706055 5.35708008 42.55615234 5.02587891 C38.30974399 3.80087493 34.49532439 3.64936037 30.1015625 3.5859375 C29.26660248 3.56657135 28.43164246 3.5472052 27.57138062 3.5272522 C24.92268874 3.46780386 22.27395257 3.42121106 19.625 3.375 C17.82159636 3.33678818 16.01821034 3.29773461 14.21484375 3.2578125 C9.81004016 3.16213119 5.4051512 3.07797289 1 3 C0.67 2.01 0.34 1.02 0 0 Z " fill="#163C7E" transform="translate(123,72)"/>
<path d="M0 0 C0.33 0.66 0.66 1.32 1 2 C3.02463255 2.65213292 3.02463255 2.65213292 5 3 C-0.78650094 7.45115457 -6.81851913 11.13396253 -13.3125 14.4375 C-13.99376953 14.79134766 -14.67503906 15.14519531 -15.37695312 15.50976562 C-19.04919096 17.33324656 -21.878106 18.45444479 -26 18 C-25.34 15.69 -24.68 13.38 -24 11 C-23.071875 11.37125 -22.14375 11.7425 -21.1875 12.125 C-19.6096875 12.558125 -19.6096875 12.558125 -18 13 C-17.01 12.34 -16.02 11.68 -15 11 C-12.70577466 10.18209435 -10.38989767 9.48561769 -8.05859375 8.78125 C-5.81875758 8.09222971 -5.81875758 8.09222971 -4 6 C-3.01 6 -2.02 6 -1 6 C-1.020625 5.195625 -1.04125 4.39125 -1.0625 3.5625 C-1 1 -1 1 0 0 Z " fill="#112D62" transform="translate(177,174)"/>
<path d="M0 0 C-0.25 2.375 -0.25 2.375 -1 5 C-3.89810116 7.09862498 -5.28378861 7 -9 7 C-9.763125 6.79375 -10.52625 6.5875 -11.3125 6.375 C-14.91189234 5.87275921 -17.59047297 6.86349099 -21 8 C-21.66 7.34 -22.32 6.68 -23 6 C-20.67315947 4.98200727 -18.34041236 3.98590426 -16 3 C-15.02740234 2.57074219 -15.02740234 2.57074219 -14.03515625 2.1328125 C-9.13919852 0.09686968 -5.29638412 -0.28373486 0 0 Z " fill="#14377B" transform="translate(104,17)"/>
<path d="M0 0 C1.65 0 3.3 0 5 0 C5 0.66 5 1.32 5 2 C6.65 2.33 8.3 2.66 10 3 C9.67 3.66 9.34 4.32 9 5 C8.34 5 7.68 5 7 5 C7 4.34 7 3.68 7 3 C5.10646634 4.89353366 3.5801368 6.84526801 2 9 C1.34 8.67 0.68 8.34 0 8 C-1.99960012 7.960008 -4.00047242 7.95653201 -6 8 C-6.33 6.02 -6.66 4.04 -7 2 C-5.34385343 1.61781233 -3.67542976 1.28604898 -2 1 C-1.67 1.33 -1.34 1.66 -1 2 C-0.67 1.34 -0.34 0.68 0 0 Z " fill="#0C3989" transform="translate(155,107)"/>
<path d="M0 0 C0.66 0 1.32 0 2 0 C2.50338797 5.28557366 1.34676996 7.90950339 -2 12 C-4.0625 13.1875 -4.0625 13.1875 -6 14 C-7.70921589 15.5412312 -7.70921589 15.5412312 -9 17 C-9.66 16.34 -10.32 15.68 -11 15 C-11 14.34 -11 13.68 -11 13 C-10.01 13 -9.02 13 -8 13 C-7.896875 12.071875 -7.79375 11.14375 -7.6875 10.1875 C-6.9937139 6.97085535 -6.65754784 5.83984081 -4 4 C-3.01 4 -2.02 4 -1 4 C-0.67 2.68 -0.34 1.36 0 0 Z " fill="#0E398A" transform="translate(200,148)"/>
<path d="M0 0 C2.27076842 -0.02699725 4.54162821 -0.04639453 6.8125 -0.0625 C8.07707031 -0.07410156 9.34164062 -0.08570313 10.64453125 -0.09765625 C14 0 14 0 17 1 C20.0597227 1.81635459 23.14371727 2.44941788 26.25 3.0625 C27.14203125 3.23910156 28.0340625 3.41570312 28.953125 3.59765625 C29.62859375 3.73042969 30.3040625 3.86320313 31 4 C31 4.33 31 4.66 31 5 C20.30178371 4.65179767 10.35379299 3.90857436 0 1 C0 0.67 0 0.34 0 0 Z " fill="#0E2046" transform="translate(96,193)"/>
<path d="M0 0 C0.66 0.33 1.32 0.66 2 1 C1.14277344 1.71285156 0.28554687 2.42570312 -0.59765625 3.16015625 C-11.45629405 10.85607586 -11.45629405 10.85607586 -18.484375 21.12890625 C-18.73960938 22.05509766 -18.73960938 22.05509766 -19 23 C-19.99 23.33 -20.98 23.66 -22 24 C-22.66 24.99 -23.32 25.98 -24 27 C-24.66 26.67 -25.32 26.34 -26 26 C-18.45499749 16.09454978 -10.30780809 7.08301897 0 0 Z " fill="#142C5A" transform="translate(72,28)"/>
<path d="M0 0 C1.24031557 3.72094671 0.57190264 4.99455723 -0.75 8.625 C-1.26820313 10.09839844 -1.26820313 10.09839844 -1.796875 11.6015625 C-3 14 -3 14 -6 15 C-6.33 14.34 -6.66 13.68 -7 13 C-7.66 13 -8.32 13 -9 13 C-9.33 12.01 -9.66 11.02 -10 10 C-7.35261084 8.5393715 -6.10551666 8 -3 8 C-2.690625 6.865625 -2.38125 5.73125 -2.0625 4.5625 C-1 1 -1 1 0 0 Z " fill="#143D8A" transform="translate(210,131)"/>
<path d="M0 0 C7.75 -0.125 7.75 -0.125 10 1 C10 1.66 10 2.32 10 3 C6.41600853 5.38932765 4.26804999 6 0 6 C-1.125 2.25 -1.125 2.25 0 0 Z " fill="#0E46AA" transform="translate(160,25)"/>
<path d="M0 0 C0.72822464 0.0028299 1.45644928 0.00565979 2.20674133 0.00857544 C4.52992262 0.01975993 6.85271672 0.04486084 9.17578125 0.0703125 C10.75194755 0.08034456 12.3281199 0.08947002 13.90429688 0.09765625 C17.76577392 0.11969354 21.62696196 0.15421109 25.48828125 0.1953125 C25.98328125 2.1753125 25.98328125 2.1753125 26.48828125 4.1953125 C25.49828125 3.5353125 24.50828125 2.8753125 23.48828125 2.1953125 C20.8741898 2.02385435 18.36958451 1.96297818 15.7578125 2 C15.00739182 2.0028299 14.25697113 2.00565979 13.48381042 2.00857544 C11.0893045 2.01976188 8.69517394 2.04486322 6.30078125 2.0703125 C4.6764377 2.08034431 3.05208828 2.08946981 1.42773438 2.09765625 C-2.55222775 2.11969613 -6.53190963 2.1542151 -10.51171875 2.1953125 C-6.86867011 -0.23338659 -4.20449536 -0.06144425 0 0 Z " fill="#13306A" transform="translate(90.51171875,64.8046875)"/>
<path d="M0 0 C-0.25 2.375 -0.25 2.375 -1 5 C-3.89810116 7.09862498 -5.28378861 7 -9 7 C-9.66 6.34 -10.32 5.68 -11 5 C-4.40909091 0 -4.40909091 0 0 0 Z " fill="#0F3A90" transform="translate(104,17)"/>
<path d="M0 0 C-1.63412443 1.70840281 -2.86906094 2.93453047 -5 4 C-5 3.34 -5 2.68 -5 2 C-6.65 2.33 -8.3 2.66 -10 3 C-10 3.66 -10 4.32 -10 5 C-12.97 4.505 -12.97 4.505 -16 4 C-11.93477827 -0.06522173 -5.49940708 -0.27497035 0 0 Z " fill="#113573" transform="translate(158,106)"/>
<path d="M0 0 C6.93 0.33 13.86 0.66 21 1 C21 1.33 21 1.66 21 2 C14.4 2.33 7.8 2.66 1 3 C0.67 2.01 0.34 1.02 0 0 Z " fill="#123981" transform="translate(123,72)"/>
<path d="M0 0 C4.59306496 1.4859916 7.43569245 3.85014682 11 7 C10.01 7.33 9.02 7.66 8 8 C8 7.34 8 6.68 8 6 C5.03 5.505 5.03 5.505 2 5 C2 4.34 2 3.68 2 3 C1.34 3 0.68 3 0 3 C0 2.01 0 1.02 0 0 Z " fill="#174292" transform="translate(170,27)"/>
<path d="M0 0 C2.79297711 0.44099639 5.31340243 1.10446748 8 2 C8 2.66 8 3.32 8 4 C6.35 3.67 4.7 3.34 3 3 C3 3.66 3 4.32 3 5 C2.01 5 1.02 5 0 5 C-0.5625 3.0625 -0.5625 3.0625 -1 1 C-0.67 0.67 -0.34 0.34 0 0 Z " fill="#0C47A7" transform="translate(149,19)"/>
<path d="M0 0 C0.86625 0.4640625 0.86625 0.4640625 1.75 0.9375 C3.91340309 2.09252028 3.91340309 2.09252028 6.125 2.3125 C6.74375 2.539375 7.3625 2.76625 8 3 C9.125 5.5 9.125 5.5 10 8 C10.66 8.33 11.32 8.66 12 9 C11.67 9.66 11.34 10.32 11 11 C9.72486237 9.92173635 8.45507431 8.83714481 7.1875 7.75 C6.47980469 7.14671875 5.77210937 6.5434375 5.04296875 5.921875 C3.08110329 4.07629602 1.54330375 2.20054668 0 0 Z " fill="#0B1936" transform="translate(56,168)"/>
<path d="M0 0 C0.66 1.65 1.32 3.3 2 5 C1.01 5.495 1.01 5.495 0 6 C-0.66 5.34 -1.32 4.68 -2 4 C-2.45375 4.495 -2.9075 4.99 -3.375 5.5 C-5 7 -5 7 -7 7 C-7.33 7.66 -7.66 8.32 -8 9 C-7.53918323 4.85264908 -4.48412936 0 0 0 Z " fill="#0A2C6C" transform="translate(61,41)"/>
<path d="M0 0 C0.99 0 1.98 0 3 0 C2.67 1.32 2.34 2.64 2 4 C2.66 4.33 3.32 4.66 4 5 C3.34 5 2.68 5 2 5 C2 5.66 2 6.32 2 7 C1.01 7.33 0.02 7.66 -1 8 C-1.04241723 5.66705225 -1.04092937 3.33297433 -1 1 C-0.67 0.67 -0.34 0.34 0 0 Z " fill="#0E46A7" transform="translate(201,63)"/>
<path d="M0 0 C0.66 0 1.32 0 2 0 C2 3.63 2 7.26 2 11 C1.01 10.67 0.02 10.34 -1 10 C-0.814375 9.2575 -0.62875 8.515 -0.4375 7.75 C-0.00415005 5.02608603 -0.2593443 3.59229496 -1 1 C-0.67 0.67 -0.34 0.34 0 0 Z " fill="#1244A1" transform="translate(211,84)"/>
<path d="M0 0 C2.475 0.99 2.475 0.99 5 2 C4.67 2.99 4.34 3.98 4 5 C2.35 4.67 0.7 4.34 -1 4 C-0.67 2.68 -0.34 1.36 0 0 Z " fill="#092C69" transform="translate(153,185)"/>
<path d="M0 0 C0.66 0 1.32 0 2 0 C1.67 2.97 1.34 5.94 1 9 C0.34 9 -0.32 9 -1 9 C-1.80967438 6.08517222 -2.21845993 4.53886783 -1.0625 1.6875 C-0.711875 1.130625 -0.36125 0.57375 0 0 Z " fill="#061C44" transform="translate(46,144)"/>
<path d="M0 0 C5.75 0.875 5.75 0.875 8 2 C8 2.99 8 3.98 8 5 C7.236875 4.690625 6.47375 4.38125 5.6875 4.0625 C3.81210323 3.32106407 1.91315348 2.63771783 0 2 C0 1.34 0 0.68 0 0 Z " fill="#173675" transform="translate(160,107)"/>
<path d="M0 0 C2.31 0 4.62 0 7 0 C6.67 1.65 6.34 3.3 6 5 C5.566875 4.54625 5.13375 4.0925 4.6875 3.625 C2.89201658 1.79975666 2.89201658 1.79975666 0 0 Z " fill="#0F3A8A" transform="translate(169,128)"/>
<path d="M0 0 C0.33 0.99 0.66 1.98 1 3 C-0.98 3.66 -2.96 4.32 -5 5 C-4.67 3.68 -4.34 2.36 -4 1 C-2.68 0.67 -1.36 0.34 0 0 Z " fill="#0B3B8E" transform="translate(173,107)"/>
<path d="M0 0 C0 1.65 0 3.3 0 5 C-1.98 5.99 -1.98 5.99 -4 7 C-3.625 4.0625 -3.625 4.0625 -3 1 C-1 0 -1 0 0 0 Z " fill="#092259" transform="translate(77,127)"/>
</svg>
