<?xml version="1.0" encoding="UTF-8"?>
<svg version="1.1" xmlns="http://www.w3.org/2000/svg" width="324" height="284">
<path d="M0 0 C0.88365234 0.00563965 1.76730469 0.0112793 2.67773438 0.01708984 C20.10308089 0.34084996 33.02782396 8.62096439 46.1875 19.3125 C47.98256364 20.75521957 49.77991351 22.19505702 51.57739258 23.63476562 C52.82421026 24.63365986 54.07013267 25.63367253 55.31518555 26.63476562 C62.18452807 32.14498035 69.19278419 37.47022137 76.20214844 42.80029297 C80.16935143 45.82204104 84.11804432 48.86776079 88.06640625 51.9140625 C90.21365988 53.56414226 92.36564468 55.20510509 94.52734375 56.8359375 C97.77658079 59.2923437 100.98936245 61.78979608 104.1875 64.3125 C105.09757813 65.02921875 106.00765625 65.7459375 106.9453125 66.484375 C118.17211365 75.89154171 124.90259699 88.88675337 127.1875 103.3125 C127.34337728 106.58433489 127.34467368 109.85379674 127.34863281 113.12890625 C127.35359772 114.11337234 127.35856262 115.09783844 127.36367798 116.11213684 C127.37827087 119.36643172 127.38509854 122.62067778 127.390625 125.875 C127.39638091 128.1459961 127.40213859 130.41699219 127.40789795 132.68798828 C127.41840123 137.45263901 127.42424761 142.21727292 127.42773438 146.98193359 C127.43320309 153.05980644 127.45719936 159.13745345 127.48570633 165.21525574 C127.50442132 169.90985746 127.50954312 174.60440589 127.51107025 179.29904175 C127.51407975 181.5379255 127.52205006 183.77680869 127.53525543 186.01565552 C127.65184842 207.31130743 125.5124791 225.08282624 110.1875 241.3125 C96.83660019 254.13669193 81.97741142 257.61707795 64.07348633 257.60302734 C62.54661737 257.60901939 61.01975142 257.61582649 59.4928894 257.62338257 C55.36244035 257.64098352 51.23207428 257.64573552 47.10159135 257.64701414 C44.51508816 257.64843995 41.92860578 257.65271772 39.34210777 257.65800858 C30.30154466 257.67649117 21.26104036 257.68468164 12.22045898 257.68310547 C3.82144467 257.6819054 -4.57731212 257.70298586 -12.97626132 257.7345928 C-20.20969915 257.76083402 -27.44305329 257.77146945 -34.67653829 257.77019465 C-38.98670827 257.76968721 -43.29664932 257.77524872 -47.60677147 257.79655075 C-51.665797 257.81606536 -55.72437839 257.81596846 -59.78342056 257.80151749 C-61.26313878 257.79944437 -62.74288578 257.80403967 -64.22255516 257.8162384 C-82.28395507 257.95535452 -97.16102543 252.55233328 -110.3046875 240.0078125 C-121.19247521 228.30598459 -125.9451451 213.92793218 -125.98950195 198.23657227 C-125.99607315 197.22445175 -126.00264435 196.21233124 -126.00941467 195.16954041 C-126.02910909 191.82266152 -126.04080459 188.47582754 -126.05078125 185.12890625 C-126.05485678 183.98151411 -126.0589323 182.83412197 -126.06313133 181.65196037 C-126.08398024 175.57339535 -126.0982845 169.49485279 -126.10766602 163.41625977 C-126.11870013 157.16578804 -126.15306915 150.91567527 -126.19283772 144.66532993 C-126.21910483 139.8360075 -126.22736703 135.00676909 -126.23094749 130.17738152 C-126.23579097 127.87511725 -126.24734027 125.57285617 -126.26598549 123.27066231 C-126.42940819 101.74651241 -123.75138412 84.38884894 -108.04296875 68.33984375 C-102.82616046 63.28540111 -96.87937898 59.15449726 -91.00097656 54.91601562 C-87.14431327 52.09020522 -83.388905 49.13506928 -79.625 46.1875 C-78.10694273 45.00238395 -76.58871699 43.81748365 -75.0703125 42.6328125 C-73.9860498 41.78638184 -73.9860498 41.78638184 -72.87988281 40.92285156 C-69.92895306 38.62427661 -66.96638329 36.34107904 -64 34.0625 C-62.97519531 33.27488281 -61.95039062 32.48726562 -60.89453125 31.67578125 C-58.76873706 30.04573628 -56.64127593 28.41807498 -54.51171875 26.79296875 C-53.40363643 25.94532479 -52.29556349 25.09766857 -51.1875 24.25 C-50.64351563 23.8360498 -50.09953125 23.42209961 -49.5390625 22.99560547 C-46.07780928 20.3444106 -42.78576576 17.55088033 -39.5 14.6875 C-35.14151311 11.08951156 -30.64898272 8.40529737 -25.625 5.875 C-24.97168701 5.54483887 -24.31837402 5.21467773 -23.64526367 4.87451172 C-15.83629928 1.11511357 -8.63482175 -0.0577194 0 0 Z M-27.05712891 43.86767578 C-29.77689517 46.10628173 -32.5735379 48.24018919 -35.375 50.375 C-36.44942323 51.19895218 -37.52364234 52.0231706 -38.59765625 52.84765625 C-39.12762207 53.25387207 -39.65758789 53.66008789 -40.20361328 54.07861328 C-42.90899812 56.15342587 -45.61054166 58.23322853 -48.3125 60.3125 C-49.39581518 61.14585693 -50.47914851 61.97919027 -51.5625 62.8125 C-52.09875 63.225 -52.635 63.6375 -53.1875 64.0625 C-58.0625 67.8125 -58.0625 67.8125 -59.68823242 69.06274414 C-60.76953613 69.89472876 -61.8504295 70.72724697 -62.9309082 71.56030273 C-65.66714639 73.66887634 -68.41028619 75.76718688 -71.16796875 77.84765625 C-87.29168917 89.22679813 -87.29168917 89.22679813 -95.8125 106.3125 C-95.90317245 107.69061896 -95.94713359 109.07232852 -95.95294189 110.45341492 C-95.95865204 111.27049423 -95.96436218 112.08757355 -95.97024536 112.92941284 C-95.97136322 113.81726471 -95.97248108 114.70511658 -95.97363281 115.61987305 C-95.97859772 116.56185043 -95.98356262 117.50382782 -95.98867798 118.47434998 C-96.00328312 121.59098034 -96.01009963 124.70755978 -96.015625 127.82421875 C-96.02137873 129.99412538 -96.02713644 132.16403199 -96.03289795 134.3339386 C-96.04340389 138.88595822 -96.04924892 143.4379602 -96.05273438 147.98999023 C-96.05821179 153.80933836 -96.0822256 159.62845165 -96.11070633 165.44772625 C-96.12937636 169.93199839 -96.13454068 174.41621452 -96.13607025 178.90052223 C-96.13908851 181.04502455 -96.14708897 183.18952607 -96.16025543 185.3339901 C-96.17740363 188.34222372 -96.17541398 191.34989097 -96.16894531 194.3581543 C-96.1781601 195.23588501 -96.18737488 196.11361572 -96.1968689 197.01794434 C-96.13390114 206.41568343 -93.66698858 213.50997206 -87.0859375 220.29296875 C-80.40649589 226.22642462 -74.69797399 227.6191112 -65.96484375 227.43359375 C-65.17911987 227.42485229 -64.393396 227.41611084 -63.5838623 227.40710449 C-61.65994997 227.38443582 -59.73618639 227.34969136 -57.8125 227.3125 C-57.81107498 226.40176224 -57.80964996 225.49102448 -57.80818176 224.5526886 C-57.79026121 215.91810949 -57.74838143 207.28403686 -57.68040943 198.64970112 C-57.6462972 194.21195697 -57.62105422 189.77455131 -57.61694336 185.33666992 C-57.61262625 181.04396477 -57.58388504 176.75202115 -57.53906822 172.45955467 C-57.52620119 170.83197677 -57.52174669 169.20430722 -57.52634621 167.57668495 C-57.55642539 153.684836 -55.52928736 141.88923228 -45.421875 131.4765625 C-38.46915431 125.71038396 -30.49906929 122.23041156 -21.48413086 122.13549805 C-19.88612892 122.11624519 -19.88612892 122.11624519 -18.25584412 122.09660339 C-16.53398643 122.08552299 -16.53398643 122.08552299 -14.77734375 122.07421875 C-13.58830948 122.066147 -12.39927521 122.05807526 -11.17420959 122.04975891 C-8.65497287 122.03592755 -6.13571749 122.02520116 -3.61645508 122.01733398 C0.21114338 122.0001742 4.03786607 121.95628366 7.86523438 121.91210938 C10.31770201 121.90197724 12.77017696 121.89346277 15.22265625 121.88671875 C16.35639175 121.86921066 17.49012726 121.85170258 18.65821838 121.83366394 C30.23552443 121.86481182 39.85289106 125.0879708 48.1875 133.3125 C57.94153815 144.60365311 58.64363309 156.16858764 58.69921875 170.4765625 C58.71609271 172.1213818 58.73424654 173.76618842 58.75361633 175.41098022 C58.8008279 179.70819128 58.8308228 184.00535089 58.85705566 188.30273438 C58.88700793 192.70062412 58.93348732 197.0983371 58.97851562 201.49609375 C59.06421995 210.10147505 59.13171011 218.70687298 59.1875 227.3125 C61.74888765 227.35654826 64.309509 227.38869337 66.87109375 227.4140625 C67.95215393 227.43448608 67.95215393 227.43448608 69.05505371 227.45532227 C77.50090653 227.51800915 83.44944753 224.72687121 89.6171875 219.08984375 C94.3995446 213.67697688 97.290901 207.40944179 97.33467102 200.17831421 C97.34182632 199.36268005 97.34898163 198.5470459 97.35635376 197.70669556 C97.35904266 196.82041473 97.36173157 195.93413391 97.36450195 195.02099609 C97.37435875 193.61043945 97.37435875 193.61043945 97.38441467 192.17138672 C97.40412235 189.05956946 97.41580599 185.94780046 97.42578125 182.8359375 C97.42985678 181.77089619 97.4339323 180.70585487 97.43813133 179.60853958 C97.4589834 173.96900884 97.47328768 168.32950235 97.48266602 162.68994141 C97.49371578 156.87958927 97.52810195 151.06962162 97.56783772 145.25940514 C97.59404948 140.77938144 97.60236202 136.29944863 97.60594749 131.81935501 C97.61080329 129.67845698 97.62238838 127.53756273 97.64098549 125.39673996 C97.66546886 122.39097868 97.66439475 119.38620263 97.6574707 116.38037109 C97.67028076 115.50623566 97.68309082 114.63210022 97.69628906 113.73147583 C97.62095222 104.69870261 94.63178258 96.96522436 88.41796875 90.3671875 C84.16747682 86.45167304 79.54769058 83.02998533 74.90917969 79.59472656 C72.14263973 77.53433691 69.41685779 75.42173712 66.6875 73.3125 C65.60437257 72.47889907 64.52103887 71.64556606 63.4375 70.8125 C43.9375 55.8125 43.9375 55.8125 42.31103516 54.5612793 C41.23270574 53.7318575 40.15425611 52.90259198 39.07568359 52.07348633 C36.28976055 49.93160264 33.50627167 47.78666226 30.7265625 45.63671875 C28.50742384 43.92069827 26.28370971 42.21097384 24.0546875 40.5078125 C22.40442471 39.24425979 20.76002195 37.97279311 19.1328125 36.6796875 C13.08173372 32.02286651 6.20186977 29.61437417 -1.44921875 29.984375 C-12.04855491 31.45601837 -19.10807284 37.24744307 -27.05712891 43.86767578 Z M-27.8125 157.3125 C-28.52779015 160.73124655 -28.52779015 160.73124655 -28.38012695 164.41943359 C-28.38085709 165.10305969 -28.38158722 165.78668579 -28.38233948 166.49102783 C-28.37887917 168.73182881 -28.34009894 170.9705036 -28.30078125 173.2109375 C-28.29144741 174.77176783 -28.28433399 176.33261288 -28.27934265 177.89346313 C-28.26031731 181.98733474 -28.21125665 186.08030923 -28.15582275 190.17382812 C-28.09550394 195.09297651 -28.07269261 200.01242607 -28.04355621 204.93183899 C-27.99518716 212.39268188 -27.89934489 219.85155922 -27.8125 227.3125 C-9.0025 227.3125 9.8075 227.3125 29.1875 227.3125 C29.30387286 214.99320066 29.30387286 214.99320066 29.3828125 202.67382812 C29.40671037 197.64802122 29.43496024 192.62250622 29.48925781 187.59692383 C29.53276685 183.54445894 29.55664775 179.49230715 29.56700897 175.43962669 C29.57439134 173.89465596 29.58880763 172.34970208 29.61042023 170.80486488 C29.63952308 168.63817139 29.64345337 166.47276617 29.64160156 164.3059082 C29.65492523 162.45724907 29.65492523 162.45724907 29.66851807 160.57124329 C29.09729813 156.70141121 27.90674622 155.06909024 25.1875 152.3125 C22.85628533 151.14689267 21.41570138 151.15548135 18.81713867 151.10375977 C17.9124736 151.08446915 17.00780853 151.06517853 16.07572937 151.04530334 C11.93651258 150.98761428 7.79747037 150.93829056 3.65795898 150.9074707 C1.47453002 150.8858751 -0.70881202 150.85175405 -2.8918457 150.80493164 C-6.03896767 150.73803238 -9.18429916 150.71048855 -12.33203125 150.69140625 C-13.30614456 150.66357559 -14.28025787 150.63574493 -15.28388977 150.60707092 C-16.6550721 150.61123268 -16.6550721 150.61123268 -18.05395508 150.61547852 C-19.25402946 150.60001732 -19.25402946 150.60001732 -20.47834778 150.58424377 C-24.0797069 151.70786895 -26.01913589 154.12481529 -27.8125 157.3125 Z " fill="#78A6FC" transform="translate(162.8125,17.6875)"/>
<path d="M0 0 C0.33 0.99 0.66 1.98 1 3 C0.01 3.556875 0.01 3.556875 -1 4.125 C-7.72674647 8.32921654 -12.51142638 11.73213828 -16 19 C-21 19 -21 19 -23 18 C-15.49857234 11.75373248 -7.85186838 5.79640545 0 0 Z " fill="#80A2E2" transform="translate(131,27)"/>
<path d="M0 0 C0 0.99 0 1.98 0 3 C-0.66 3 -1.32 3 -2 3 C-2 3.66 -2 4.32 -2 5 C-5.40882575 8.69289457 -8.69884096 12.11493883 -13.4375 13.9375 C-16.43045791 15.17848255 -18.55106275 16.90091093 -21 19 C-21.66 18.67 -22.32 18.34 -23 18 C-7.25512528 5.33029613 -7.25512528 5.33029613 0 0 Z " fill="#7FA3E8" transform="translate(96,54)"/>
<path d="M0 0 C-0.99 1.32 -1.98 2.64 -3 4 C-3.66 3.67 -4.32 3.34 -5 3 C-7.19231368 3.2819248 -7.19231368 3.2819248 -9.5625 3.875 C-10.77099609 4.14957031 -10.77099609 4.14957031 -12.00390625 4.4296875 C-13.98197809 4.82009712 -13.98197809 4.82009712 -15 6 C-16.99958364 6.04080783 -19.00045254 6.04254356 -21 6 C-15.1310315 0.64137659 -7.63559725 -0.41648712 0 0 Z " fill="#80A3EB" transform="translate(144,139)"/>
<path d="M0 0 C1.04296875 1.84765625 1.04296875 1.84765625 2 4 C1.20305334 6.82553816 0.04929086 8.92507789 -1.5625 11.375 C-3.31405116 14.57348473 -3.64675078 17.39685799 -4 21 C-4.33 21 -4.66 21 -5 21 C-5.76646851 13.18202122 -3.03916589 7.12033152 0 0 Z " fill="#7EA3E9" transform="translate(43,102)"/>
<path d="M0 0 C4.34863652 0.56444825 7.17827655 2.15427964 10.8125 4.5625 C12.27623047 5.52349609 12.27623047 5.52349609 13.76953125 6.50390625 C14.50558594 6.99761719 15.24164063 7.49132812 16 8 C15.01 8.495 15.01 8.495 14 9 C11.375 8.0625 11.375 8.0625 9 7 C9 6.34 9 5.68 9 5 C7.68 5 6.36 5 5 5 C4.67 5.66 4.34 6.32 4 7 C3.34 6.34 2.68 5.68 2 5 C2 3.68 2 2.36 2 1 C1.34 0.67 0.68 0.34 0 0 Z " fill="#80A3ED" transform="translate(184,22)"/>
<path d="M0 0 C1.1446875 0.495 1.1446875 0.495 2.3125 1 C4.99069135 2.17436686 4.99069135 2.17436686 8 2 C9.02028865 3.31787285 10.01971384 4.65210653 11 6 C11.99 6.33 12.98 6.66 14 7 C13.67 7.99 13.34 8.98 13 10 C9.74035658 8.51222697 7.06830707 6.64333184 4.25 4.4375 C3.45078125 3.81746094 2.6515625 3.19742188 1.828125 2.55859375 C1.22484375 2.04425781 0.6215625 1.52992187 0 1 C0 0.67 0 0.34 0 0 Z " fill="#7EA6ED" transform="translate(188,59)"/>
<path d="M0 0 C0 3.34419152 -0.47519394 4.06840321 -2.375 6.6875 C-3.03628906 7.62142578 -3.03628906 7.62142578 -3.7109375 8.57421875 C-4.13632812 9.04472656 -4.56171875 9.51523438 -5 10 C-5.66 10 -6.32 10 -7 10 C-7.33 11.65 -7.66 13.3 -8 15 C-8.99 15.33 -9.98 15.66 -11 16 C-9.66534338 12.22959506 -7.99723337 9.42875097 -5.5 6.3125 C-4.8915625 5.54550781 -4.283125 4.77851562 -3.65625 3.98828125 C-2 2 -2 2 0 0 Z " fill="#80A3E5" transform="translate(55,86)"/>
<path d="M0 0 C1.32 0 2.64 0 4 0 C3.71125 0.70125 3.4225 1.4025 3.125 2.125 C1.97866412 5.05452503 0.97374346 8.00921653 0 11 C-1.85776765 7.86501708 -2.20140476 5.62528568 -2 2 C-1.34 2 -0.68 2 0 2 C0 1.34 0 0.68 0 0 Z " fill="#7BA3EE" transform="translate(68,112)"/>
<path d="M0 0 C0.9075 0.309375 1.815 0.61875 2.75 0.9375 C5.16563338 1.7272263 7.52780285 2.42949297 10 3 C10 3.66 10 4.32 10 5 C10.66 5.33 11.32 5.66 12 6 C11.34 6 10.68 6 10 6 C9.67 6.66 9.34 7.32 9 8 C7.49712782 6.85793642 5.99776716 5.71125043 4.5 4.5625 C3.6646875 3.92441406 2.829375 3.28632812 1.96875 2.62890625 C1.3190625 2.09136719 0.669375 1.55382812 0 1 C0 0.67 0 0.34 0 0 Z " fill="#7EA6EB" transform="translate(236,96)"/>
<path d="M0 0 C1.65 0 3.3 0 5 0 C3.44499019 3.81684226 0.96404505 6.19195732 -2 9 C-1.34 6.03 -0.68 3.06 0 0 Z " fill="#84A8F0" transform="translate(274,250)"/>
<path d="M0 0 C0.53625 0.268125 1.0725 0.53625 1.625 0.8125 C0.3125 3.3125 0.3125 3.3125 -1.375 5.8125 C-6.375 5.8125 -6.375 5.8125 -8.375 4.8125 C-2.95961538 -0.23365385 -2.95961538 -0.23365385 0 0 Z " fill="#7BA3EF" transform="translate(116.375,40.1875)"/>
<path d="M0 0 C0.66 1.32 1.32 2.64 2 4 C1.07347299 5.17539996 0.13336613 6.34010577 -0.8125 7.5 C-1.33457031 8.1496875 -1.85664063 8.799375 -2.39453125 9.46875 C-4 11 -4 11 -7 11 C-6.57847656 10.37351563 -6.15695313 9.74703125 -5.72265625 9.1015625 C-4.90087891 7.87566406 -4.90087891 7.87566406 -4.0625 6.625 C-3.24458984 5.40683594 -3.24458984 5.40683594 -2.41015625 4.1640625 C-0.98906121 2.07280816 -0.98906121 2.07280816 0 0 Z " fill="#80A4E7" transform="translate(258,226)"/>
<path d="M0 0 C0.33 0.66 0.66 1.32 1 2 C0.05125 2.7425 -0.8975 3.485 -1.875 4.25 C-4.32532401 6.27845219 -5.87325363 7.9577848 -7 11 C-7.99 11 -8.98 11 -10 11 C-8.55218207 7.55571735 -6.72305391 5.63869038 -3.875 3.25 C-3.15054688 2.63640625 -2.42609375 2.0228125 -1.6796875 1.390625 C-0.84824219 0.70226562 -0.84824219 0.70226562 0 0 Z " fill="#7DA3E2" transform="translate(122,145)"/>
<path d="M0 0 C0.66 0.33 1.32 0.66 2 1 C-1.3 3.64 -4.6 6.28 -8 9 C-8.66 8.67 -9.32 8.34 -10 8 C-9.67 7.01 -9.34 6.02 -9 5 C-7.67696283 4.6278958 -6.34262065 4.29369827 -5 4 C-4.67 3.34 -4.34 2.68 -4 2 C-2.0625 0.8125 -2.0625 0.8125 0 0 Z " fill="#7DA0E2" transform="translate(94,92)"/>
<path d="M0 0 C1.98 0 3.96 0 6 0 C3.14978125 2.32240046 0.53644909 3.93906527 -3 5 C-5.3125 4.625 -5.3125 4.625 -7 4 C-5.02 3.67 -3.04 3.34 -1 3 C-0.67 2.01 -0.34 1.02 0 0 Z " fill="#80A4E1" transform="translate(253,268)"/>
<path d="M0 0 C2.29633824 3.44450737 2.54016485 5.93812283 3 10 C1.68 9.01 0.36 8.02 -1 7 C-0.67 4.69 -0.34 2.38 0 0 Z " fill="#82A3EB" transform="translate(218,161)"/>
<path d="M0 0 C4.41889613 1.35021826 6.34345343 3.26115668 9 7 C7.0625 6.625 7.0625 6.625 5 6 C4.67 5.34 4.34 4.68 4 4 C1.98330173 2.86649466 1.98330173 2.86649466 0 2 C0 1.34 0 0.68 0 0 Z " fill="#7EA2E4" transform="translate(203,145)"/>
<path d="M0 0 C2.6875 0.3125 2.6875 0.3125 5 1 C3.35 2.65 1.7 4.3 0 6 C-0.33 5.34 -0.66 4.68 -1 4 C-1.66 3.67 -2.32 3.34 -3 3 C-1.8125 1.4375 -1.8125 1.4375 0 0 Z " fill="#78A2EB" transform="translate(126,64)"/>
<path d="M0 0 C6.875 3.75 6.875 3.75 8 6 C6.68 6.33 5.36 6.66 4 7 C3.566875 6.0409375 3.566875 6.0409375 3.125 5.0625 C2.17176549 2.84793921 2.17176549 2.84793921 0 2 C0 1.34 0 0.68 0 0 Z " fill="#7C9FE6" transform="translate(232,56)"/>
</svg>
